<?xml version="1.0" encoding="UTF-8"?>
<svg id="katman_2" data-name="katman 2" xmlns="http://www.w3.org/2000/svg" viewBox="0 0 597.51 478.75">
  <defs>
    <style>
      .cls-1 {
        fill: #1d1d1b;
      }
    </style>
  </defs>
  <g id="katman_1" data-name="katman 1">
    <g>
      <path class="cls-1" d="M597.51,99.47l-178.35,103.26c.13,5.73.21,11.59.24,17.55l134.06-74.85v100.33l-140.07,81.1c0,.05-.03.13-.03.18v101.2l-89.92,50.21-.52.29V153.36l89.74-50.1.71-.39L597.51,0v99.47Z"/>
      <path class="cls-1" d="M0,99.47l178.35,103.26c-.13,5.73-.21,11.59-.24,17.55L44.06,145.44v100.33s140.07,81.1,140.07,81.1c0,.05.03.13.03.18v101.2s89.92,50.21,89.92,50.21l.52.29V153.36s-89.74-50.1-89.74-50.1l-.71-.39L0,0v99.47Z"/>
    </g>
  </g>
</svg>